<svg width="72" height="72" fill="none" xmlns="http://www.w3.org/2000/svg"><circle cx="35.519" cy="36.451" r="35.519" fill="#7879F1" fill-opacity=".06"/><g clip-path="url('#clip0_2_265')" fill="#7879F1"><path d="M51.886 54.931H16.113a1.113 1.113 0 1 1 0-2.226h35.773a1.113 1.113 0 0 1 0 2.226Z"/><path d="M22.867 54.931h-4.453a1.113 1.113 0 0 1-1.114-1.113v-8.164c0-1.023.833-1.855 1.856-1.855h2.969c1.023 0 1.855.832 1.855 1.855v8.164c0 .615-.498 1.113-1.113 1.113Zm-3.34-2.226h2.227v-6.68h-2.227v6.68Zm2.598-6.68ZM31.773 54.931H27.32a1.113 1.113 0 0 1-1.113-1.113V42.982c0-1.023.832-1.855 1.855-1.855h2.969c1.023 0 1.855.832 1.855 1.855v10.836c0 .615-.498 1.113-1.113 1.113Zm-3.34-2.226h2.227v-9.352h-2.227v9.352Zm2.598-9.352ZM40.68 54.931h-4.454a1.113 1.113 0 0 1-1.113-1.113V38.9c0-1.023.832-1.855 1.855-1.855h2.97c1.022 0 1.854.832 1.854 1.855v14.918c0 .615-.498 1.113-1.113 1.113Zm-3.34-2.226h2.226V39.27h-2.227v13.434Zm2.597-13.434ZM49.585 54.931h-4.453a1.113 1.113 0 0 1-1.113-1.113v-22.34c0-1.023.832-1.855 1.855-1.855h2.97c1.022 0 1.855.832 1.855 1.855v22.34c0 .615-.499 1.113-1.114 1.113Zm-3.34-2.226h2.227V31.85h-2.226v20.855Zm2.598-20.855h.001ZM16.113 40.853a1.113 1.113 0 1 1 0-2.227c6.547 0 13.675-2.384 20.07-6.712 5.885-3.983 10.573-9.203 12.864-14.323a1.113 1.113 0 1 1 2.032.91c-2.455 5.487-7.43 11.048-13.648 15.257-6.76 4.575-14.331 7.095-21.318 7.095Z"/><path d="M51.885 25.962c-.491 0-.941-.328-1.074-.825l-1.535-5.729-5.728 1.535a1.113 1.113 0 1 1-.577-2.15l6.804-1.823a1.113 1.113 0 0 1 1.363.787l1.823 6.803a1.113 1.113 0 0 1-1.076 1.402Z"/></g><defs><clipPath id="clip0_2_265"><path fill="#fff" transform="translate(15 16.931)" d="M0 0h38v38H0z"/></clipPath></defs></svg>