<svg width="72" height="72" fill="none" xmlns="http://www.w3.org/2000/svg"><circle cx="35.519" cy="35.519" r="35.519" fill="#68CDFD" fill-opacity=".08"/><path d="M28.257 38.903a.811.811 0 0 1 0-1.236l3.632-3.093.162.19-3.794 4.139Zm0 0 3.632 3.093a.81.81 0 0 0 1.144-.092m-4.776-3.001 4.776 3m0 0a.811.811 0 0 0-.092-1.143l-2.906-2.475 2.906-2.475.092 6.094ZM41.965 38.285 39.06 40.76a.811.811 0 0 0-.092 1.144l.19-.162 2.808-3.457Zm0 0 .193-.164-2.937-2.502a.561.561 0 0 1 .728-.854l.162-.19 3.632 3.092a.81.81 0 0 1 0 1.236l-3.633 3.093m1.855-3.711L39.06 35.81l.162-.19-.162.19a.811.811 0 0 1-.092-1.144l.19.162-.19-.162 1.144 7.33m0 0ZM34.546 44.492a.811.811 0 0 0 .96-.627h.001l2.264-10.748a.811.811 0 0 0-1.588-.335L33.919 43.53a.811.811 0 0 0 .627.962Z" fill="#53C8FF" stroke="#53C8FF" stroke-width=".5"/><path d="M22.769 50.365H49.23a4.023 4.023 0 0 0 4.019-4.02V23.887a4.023 4.023 0 0 0-4.019-4.019H22.77a4.023 4.023 0 0 0-4.02 4.02v22.459a4.023 4.023 0 0 0 4.02 4.019Zm-2.396-26.479a2.4 2.4 0 0 1 2.396-2.396H49.23a2.4 2.4 0 0 1 2.396 2.396v22.46a2.4 2.4 0 0 1-2.396 2.396H22.77a2.4 2.4 0 0 1-2.396-2.396v-22.46Z" fill="#53C8FF" stroke="#53C8FF" stroke-width=".5"/><path d="M19.561 29.356H52.44a.811.811 0 1 0 0-1.623H19.56a.811.811 0 0 0 0 1.623Z" fill="#53C8FF" stroke="#53C8FF" stroke-width=".5"/><path d="M29.877 26.42c-.98 0-1.776-.798-1.776-1.777 0-.98.797-1.776 1.776-1.776.98 0 1.776.797 1.776 1.776 0 .98-.797 1.777-1.776 1.777Zm0-2.43a.655.655 0 1 0 .002 1.309.655.655 0 0 0-.002-1.31ZM24.42 26.402c-.98 0-1.777-.796-1.777-1.776s.797-1.776 1.776-1.776c.98 0 1.776.797 1.776 1.776 0 .98-.796 1.776-1.776 1.776Zm0-2.43a.655.655 0 0 0 0 1.308.654.654 0 0 0 0-1.308ZM35.335 26.437c-.98 0-1.776-.797-1.776-1.777 0-.979.797-1.776 1.776-1.776.98 0 1.776.797 1.776 1.776 0 .98-.796 1.777-1.776 1.777Zm0-2.43a.654.654 0 1 0 .002 1.308.654.654 0 0 0-.002-1.308Z" fill="#53C8FF"/></svg>