<svg width="72" height="72" fill="none" xmlns="http://www.w3.org/2000/svg"><circle cx="35.519" cy="36.451" r="35.519" fill="#E9F6EE"/><g clip-path="url('#clip0_2_210')"><path d="m53.063 26.004 1.94-1.94a1.173 1.173 0 0 0-.73-1.996l-3.599-.304-.303-3.599a1.172 1.172 0 0 0-1.997-.73l-1.94 1.94A19.893 19.893 0 0 0 36 16.44a19.87 19.87 0 0 0-14.142 5.858A19.869 19.869 0 0 0 16 36.439a19.87 19.87 0 0 0 5.858 14.142A19.87 19.87 0 0 0 36 56.439a19.87 19.87 0 0 0 14.142-5.858A19.87 19.87 0 0 0 56 36.439c0-3.71-1.013-7.297-2.937-10.435Zm-4.641-3.056c.048.569.5 1.02 1.07 1.069l2.07.174-2.803 2.803-3.057-.258-.258-3.056 2.803-2.803.175 2.07Zm-8.438 13.49A3.989 3.989 0 0 1 36 40.424a3.989 3.989 0 0 1-3.984-3.984A3.989 3.989 0 0 1 36 32.454c.673 0 1.307.169 1.863.464l-2.692 2.692a1.171 1.171 0 1 0 1.657 1.657l2.692-2.691c.296.556.464 1.19.464 1.863Zm-.418-5.223A6.293 6.293 0 0 0 36 30.11a6.335 6.335 0 0 0-6.328 6.328A6.335 6.335 0 0 0 36 42.767a6.335 6.335 0 0 0 6.328-6.328c0-1.322-.408-2.55-1.104-3.567l3.346-3.346a10.963 10.963 0 0 1 2.446 6.913c0 6.074-4.942 11.015-11.016 11.015S24.984 42.513 24.984 36.44c0-6.074 4.942-11.016 11.016-11.016 2.616 0 5.021.917 6.913 2.446l-3.346 3.346Zm8.919 17.708A17.54 17.54 0 0 1 36 54.095a17.54 17.54 0 0 1-12.485-5.172 17.54 17.54 0 0 1-5.171-12.484 17.54 17.54 0 0 1 5.171-12.485A17.54 17.54 0 0 1 36 18.782c3.085 0 6.074.793 8.724 2.303l-1.321 1.322a1.172 1.172 0 0 0-.34.927l.158 1.87A13.279 13.279 0 0 0 36 23.079c-7.366 0-13.36 5.993-13.36 13.36 0 7.366 5.994 13.36 13.36 13.36s13.36-5.994 13.36-13.36c0-2.659-.781-5.138-2.125-7.221l1.87.157c.033.003.065.004.098.004h.017l.046-.003c.026-.001.051-.003.076-.006a1.811 1.811 0 0 0 .166-.032 1.13 1.13 0 0 0 .185-.068l.043-.02c.022-.011.044-.024.066-.037l.039-.023c.023-.015.045-.032.068-.049l.03-.023c.032-.025.063-.053.093-.082l1.321-1.322a17.566 17.566 0 0 1 2.303 8.725 17.54 17.54 0 0 1-5.171 12.484Z" fill="#34D27B"/></g><defs><clipPath id="clip0_2_210"><path fill="#fff" transform="translate(16 16.439)" d="M0 0h40v40H0z"/></clipPath></defs></svg>