<svg width="72" height="73" fill="none" xmlns="http://www.w3.org/2000/svg"><circle cx="35.972" cy="36.512" r="35.519" fill="#BC5C56" fill-opacity=".06"/><path d="M55.941 36.018c0-.406-.211-.782-.557-.995l-4.065-2.506 4.07-2.533a1.172 1.172 0 0 0 .003-1.988L36.563 16.2a1.172 1.172 0 0 0-1.244 0L16.491 27.995a1.172 1.172 0 0 0 .003 1.988l4.041 2.516-4.043 2.527a1.172 1.172 0 0 0 .002 1.989l4.042 2.515-4.044 2.527a1.172 1.172 0 0 0 0 1.987l18.827 11.797a1.17 1.17 0 0 0 1.244 0l18.829-11.797a1.172 1.172 0 0 0-.008-1.99l-4.065-2.507 4.07-2.532c.344-.215.553-.592.552-.998Zm-36.615-7.032 16.615-10.41 16.616 10.41-16.616 10.342-16.615-10.342ZM52.549 43.06 35.941 53.466 19.322 43.053l3.43-2.143 12.57 7.824a1.17 1.17 0 0 0 1.239 0l12.536-7.802 3.452 2.128Zm-16.608 3.3L19.328 36.018l3.423-2.14 12.571 7.824a1.17 1.17 0 0 0 1.239 0L49.097 33.9l3.447 2.126-16.603 10.333Z" fill="#FD695A" stroke="#FD695A" stroke-width=".5"/></svg>