<svg width="14" height="13" viewBox="0 0 14 13" fill="none" xmlns="http://www.w3.org/2000/svg">
<path d="M8.121 0.438264C7.93353 0.625792 7.82821 0.8801 7.82821 1.14526C7.82821 1.41043 7.93353 1.66474 8.121 1.85226L11.413 5.14526L1 5.15226C0.734784 5.15226 0.48043 5.25762 0.292893 5.44516C0.105357 5.63269 0 5.88705 0 6.15226C0 6.41748 0.105357 6.67183 0.292893 6.85937C0.48043 7.04691 0.734784 7.15226 1 7.15226L11.414 7.14526L8.121 10.4383C8.02549 10.5305 7.94931 10.6409 7.8969 10.7629C7.84449 10.8849 7.8169 11.0161 7.81575 11.1489C7.8146 11.2816 7.8399 11.4133 7.89018 11.5362C7.94046 11.6591 8.01471 11.7708 8.10861 11.8647C8.2025 11.9586 8.31415 12.0328 8.43705 12.0831C8.55994 12.1334 8.69162 12.1587 8.8244 12.1575C8.95718 12.1564 9.0884 12.1288 9.2104 12.0764C9.33241 12.024 9.44275 11.9478 9.535 11.8523L13.121 8.26726C13.3996 7.98868 13.6207 7.65794 13.7715 7.29393C13.9222 6.92992 13.9999 6.53977 13.9999 6.14576C13.9999 5.75176 13.9222 5.36161 13.7715 4.9976C13.6207 4.63359 13.3996 4.30285 13.121 4.02426L9.535 0.438264C9.34747 0.250793 9.09316 0.145477 8.828 0.145477C8.56284 0.145477 8.30853 0.250793 8.121 0.438264Z" fill="#3D3D3F"></path>
</svg>
