<svg width="21" height="18" viewBox="0 0 21 18" fill="none" xmlns="http://www.w3.org/2000/svg">
<path d="M8.42277 1.00942C8.69088 1.2776 8.84149 1.64129 8.84149 2.0205C8.84149 2.39972 8.69088 2.7634 8.42277 3.03159L3.71485 7.74094L18.6066 7.75095C18.9859 7.75095 19.3496 7.90162 19.6178 8.16982C19.886 8.43802 20.0367 8.80177 20.0367 9.18106C20.0367 9.56035 19.886 9.9241 19.6178 10.1923C19.3496 10.4605 18.9859 10.6112 18.6066 10.6112L3.71342 10.6012L8.42277 15.3105C8.55936 15.4424 8.66831 15.6002 8.74326 15.7747C8.81821 15.9492 8.85766 16.1369 8.85931 16.3267C8.86096 16.5166 8.82478 16.705 8.75287 16.8807C8.68096 17.0565 8.57477 17.2161 8.4405 17.3504C8.30622 17.4847 8.14655 17.5909 7.97079 17.6628C7.79504 17.7347 7.60672 17.7709 7.41683 17.7692C7.22694 17.7676 7.03928 17.7281 6.8648 17.6532C6.69033 17.5782 6.53252 17.4693 6.4006 17.3327L1.27222 12.2057C0.873751 11.8073 0.557662 11.3343 0.342007 10.8138C0.126353 10.2932 0.0153584 9.73524 0.0153584 9.17177C0.0153584 8.60829 0.126353 8.05033 0.342007 7.52976C0.557662 7.00919 0.873751 6.53619 1.27222 6.13779L6.4006 1.00942C6.66878 0.741311 7.03247 0.590698 7.41168 0.590698C7.7909 0.590698 8.15459 0.741311 8.42277 1.00942Z" fill="#3D3D3F"></path>
</svg>
