<svg width="197" height="46" fill="none" xmlns="http://www.w3.org/2000/svg"><path fill-rule="evenodd" clip-rule="evenodd" d="M0 41.854C0 44.37 1.644 46 4.179 46h12.209c7.284 0 13.242-2.444 17.293-6.724H0v2.58ZM16.388 0H4.178C1.645 0 0 1.63 0 4.145v2.579h33.68C29.63 2.444 23.673 0 16.389 0Zm10.655 29.554c0 2.034 1.336 3.354 3.395 3.354h7.316c.83-2.042 1.387-4.286 1.646-6.708h-8.962c-2.06 0-3.395 1.32-3.395 3.354Zm-10.14-13.092c0 2.034 1.335 3.354 3.395 3.354H39.4c-.26-2.422-.816-4.667-1.646-6.708H20.298c-2.06 0-3.395 1.32-3.395 3.354Zm3.393 13.092c0-2.034-1.336-3.354-3.396-3.354H0v6.708h16.9c2.06 0 3.396-1.32 3.396-3.354ZM10.155 16.462c0-2.034-1.336-3.354-3.395-3.354H0v6.708h6.76c2.06 0 3.395-1.32 3.395-3.354ZM85.92 22.307c.544-2.625 2.302-3.96 4.612-3.96 2.29 0 3.964 1.395 4.498 3.96h-9.11Zm4.737-8.507c-5.881 0-9.54 4.673-9.54 10.389 0 5.92 3.91 10.31 9.72 10.31 4.007 0 6.437-1.842 7.941-4.163l-3.74-2.376c-.94 1.278-2.445 1.953-4.058 1.953-2.638 0-4.405-1.229-5.007-3.686h9.872l-.002.01 3.599.021a9.83 9.83 0 0 0 .217-2.07c0-4.978-3.084-10.388-9.002-10.388ZM66.053 29.9c-3.619 0-5.794-2.575-5.794-5.75 0-3.176 2.217-5.75 5.794-5.75 3.577 0 5.794 2.574 5.794 5.75 0 3.175-2.175 5.75-5.794 5.75Zm5.4-13.061c-1.445-1.722-3.497-2.778-6.044-2.778-5.692 0-9.786 4.575-9.786 10.22 0 5.643 4.055 10.219 9.786 10.219 2.547 0 4.599-1.056 6.044-2.778v2.274h5.03V6.9h-5.03v9.939ZM115.04 23.81c1.365.947 2.231 2.366 2.231 4.24 0 3.785-2.572 6.411-7.379 6.411-4.524 0-6.95-2.3-7.916-4.623l4.153-2.407s.559 2.51 3.689 2.51c1.937 0 2.534-.849 2.534-1.6 0-.347-.112-.987-1.491-1.528-2.769-1.086-8.123-1.573-8.123-6.528 0-4.055 3.203-6.218 7.154-6.218 3.695 0 6.068 2.281 6.969 4.056l-4.062 2.355s-.783-1.97-2.87-1.97c-2.086 0-2.272 1.198-2.272 1.546 0 1.014 1.041 1.43 3.279 2.086 1.324.388 2.685.74 4.108 1.666a.016.016 0 0 0-.004.004ZM197 19.397h-4.211v8.034c0 2.51 2.459 1.97 4.211 1.97v4.52s-.923.154-2.534.154c-3.577 0-6.484-1.082-6.484-6.644v-8.034h-3.242v-4.79h3.242V9.2h4.807v5.407H197v4.79Zm-67.779 10.197c1.995 0 3.529-.986 4.304-2.604l4.167 2.476c-1.633 2.968-4.675 5.034-8.471 5.034-5.757 0-9.782-4.566-9.782-10.198 0-5.631 4.062-10.197 9.782-10.197 3.74 0 6.771 2.032 8.421 4.96l-4.158 2.533c-.79-1.596-2.311-2.587-4.263-2.587-2.909 0-4.975 2.369-4.975 5.291 0 2.923 2.047 5.292 4.975 5.292ZM173.411 29.541c-3.132 0-5.014-2.422-5.014-5.41 0-2.989 1.918-5.411 5.014-5.411 3.095 0 5.013 2.422 5.013 5.41 0 2.989-1.882 5.412-5.013 5.412ZM174.008 14c5.285 0 9.086 4.536 9.086 10.131 0 5.596-3.765 10.132-9.086 10.132-2.365 0-4.27-1.047-5.611-2.754V41.4h-4.67V14.537h4.67v2.216c1.341-1.707 3.246-2.754 5.611-2.754Zm-19.259 19.764V14.575h4.67v19.188h-4.67Zm-8.703-15.91c.901-2.326 2.738-3.656 5.503-3.662v5.526c-3.242-.325-5.584 1.384-5.499 5.42l-.004-.008v8.634h-4.67V14.575h4.67v3.277Zm8.703-5.839V6.9h4.824v5.114h-4.824Z" fill="#0062FF"/></svg>