<svg width="98" height="46" fill="none" xmlns="http://www.w3.org/2000/svg"><path d="M10.655 3.504v12.954s4.621 0 7.095-.185c1.945-.336 2.303-.522 2.661-2.443l.716-2.814h2.116l-.358 6.15.187 6.3H20.94l-.528-2.46c-.528-1.751-1.244-2.107-2.661-2.275-1.773-.185-7.095-.185-7.095-.185V29.41c0 2.09 1.074 2.982 3.547 2.982h7.454c2.303 0 4.604-.185 6.038-3.504l1.928-4.211h1.79c-.188.875-1.074 8.59-1.244 10.326 0 0-6.738-.168-9.57-.168H7.824l-7.624.168V33.1l2.474-.539c1.79-.353 2.318-.875 2.318-2.275 0 0 .188-4.733.188-12.618 0-7.866-.188-12.601-.188-12.601 0-1.568-.528-1.921-2.318-2.275L.199 2.274V.354l7.454.15h14.19C24.675.504 29.45 0 29.45 0s-.17 2.964-.358 9.972h-1.945l-.716-2.46c-.698-3.15-1.757-4.718-3.718-4.718H11.558c-.903.002-.903.17-.903.71Zm28.721 1.382h2.133v7.361l7.283-.354-.358 3.336-7.095-.539v12.972c0 3.672 1.244 5.087 3.377 5.087 1.928 0 3.36-1.061 3.888-1.937l1.057 1.23c-1.057 2.443-4.058 3.672-6.907 3.672-3.53 0-6.397-2.09-6.397-6.115V14.873h-4.231v-1.75c3.55-.354 6.194-2.46 7.25-8.237Zm15.265 22.589 1.415 3.335c.528 1.398 1.772 2.814 4.604 2.814 3.02 0 4.264-1.583 4.264-3.504 0-5.964-11.888-4.21-11.888-12.264 0-4.548 3.718-6.672 8.51-6.672 2.133 0 5.323.354 6.925 1.061-.358 1.75-.545 4.026-.545 5.779l-1.758.168-1.244-3.504c-.358-.858-1.79-1.568-3.548-1.568-2.133 0-4.264.876-4.264 3.15 0 5.426 12.246 4.212 12.246 12.265 0 4.565-4.076 7.008-9.056 7.008-3.718 0-7.453-1.414-7.453-1.414.358-2.09.187-4.362 0-6.654h1.792Zm13.833 16.812c.528-1.921.886-4.362 1.244-6.654l1.945-.169.716 3.673c.17.875.699 1.582 2.116 1.582 2.303 0 5.322-1.397 8.17-6.3-1.263-2.982-4.98-12.601-8.358-19.963-.886-1.936-1.057-2.106-2.286-2.46l-.904-.337v-1.768l5.338.186 6.55-.354v1.753l-1.603.354c-1.244.168-1.757.858-1.757 1.567 0 .186 0 .354.17.708.34 1.06 3.19 8.929 5.323 14.183 1.757-3.672 5.134-11.909 5.663-13.308.188-.707.358-.875.358-1.397 0-.893-.529-1.415-1.758-1.751l-1.261-.356v-1.75l4.98.167 4.604-.168v1.751l-.887.69c-1.773.707-1.96.876-2.661 2.29L86.382 34.48C81.76 44.824 76.968 45.7 73.606 45.7c-2.13.001-3.733-.538-5.132-1.413Z" fill="#FB6F20"/></svg>