<svg width="21" height="18" viewBox="0 0 21 18" fill="none" xmlns="http://www.w3.org/2000/svg">
<path d="M11.629 1.06117C11.3609 1.32936 11.2103 1.69305 11.2103 2.07226C11.2103 2.45147 11.3609 2.81516 11.629 3.08335L16.3369 7.7927L1.44521 7.80271C1.06592 7.80271 0.702168 7.95338 0.43397 8.22158C0.165773 8.48978 0.0151005 8.85353 0.0151005 9.23282C0.0151005 9.61211 0.165773 9.97586 0.43397 10.2441C0.702168 10.5123 1.06592 10.6629 1.44521 10.6629L16.3384 10.6529L11.629 15.3623C11.4924 15.4942 11.3835 15.652 11.3085 15.8265C11.2336 16.001 11.1941 16.1886 11.1925 16.3785C11.1908 16.5684 11.227 16.7567 11.2989 16.9325C11.3708 17.1082 11.477 17.2679 11.6113 17.4022C11.7456 17.5364 11.9052 17.6426 12.081 17.7145C12.2568 17.7865 12.4451 17.8226 12.635 17.821C12.8249 17.8193 13.0125 17.7799 13.187 17.7049C13.3615 17.63 13.5193 17.521 13.6512 17.3844L18.7796 12.2575C19.178 11.8591 19.4941 11.3861 19.7098 10.8655C19.9254 10.345 20.0364 9.787 20.0364 9.22352C20.0364 8.66005 19.9254 8.10209 19.7098 7.58152C19.4941 7.06094 19.178 6.58795 18.7796 6.18955L13.6512 1.06117C13.383 0.793069 13.0193 0.642456 12.6401 0.642456C12.2609 0.642456 11.8972 0.793069 11.629 1.06117V1.06117Z" fill="white"></path>
</svg>
