<svg width="404" height="116" fill="none" xmlns="http://www.w3.org/2000/svg"><mask id="path-1-inside-1_2_124" fill="#fff"><rect x="7" y="7" width="380" height="91" rx="1"/></mask><rect x="7" y="7" width="380" height="91" rx="1" stroke="#41BA77" stroke-width="7" mask="url('#path-1-inside-1_2_124')"/><path d="M0 5a5 5 0 0 1 10 0v5H5a5 5 0 0 1-5-5ZM0 100a5 5 0 0 0 10 0v-5H5a5 5 0 0 0-5 5ZM394 100a5 5 0 0 1-10 0v-5h5a5 5 0 0 1 5 5ZM394 6a5 5 0 0 0-10 0v5h5a5 5 0 0 0 5-5Z" fill="#41BA77"/><g clip-path="url('#clip0_2_124')"><path fill-rule="evenodd" clip-rule="evenodd" d="M392.86 112.488c-.381-.253-.936-.845-1.796-1.502-.486-.372-1.6-1.008-1.994-1.386-.344-.337-.38-.526-.439-.878-.104-.626.357-1.29 1.031-1.44.508-.114 1.033.076 1.51.262.287.112.684.381.918.53.216.136.279.201.516.367.314.221.429.344.241.049-.221-.449-.593-1.219-.984-1.879-.298-.501-.355-.576-.605-.953-.267-.401-.43-.69-.697-1.12-.187-.305-.551-.935-.714-1.303-.223-.502-.527-1.341-.32-1.84.162-.39.732-.677 1.165-.61.567.088 1.074.706 1.292.947.393.434.724.975 1.097 1.705.475.93 1.205 2.198 1.307 2.481-.091-.359-.419-1.069-.467-1.425-.044-.324.097-.762.387-.962.246-.17.555-.303.854-.336.318-.036.701.075.883.238.537.481.938 1.692.931 1.622-.034-.384-.312-1.19-.219-1.594.061-.266.335-.577.505-.668.264-.14.602-.267.914-.305.252-.031.664.146.795.253.313.26.732 1.147.873 1.46.058.129-.051-.396.051-.791.188-.733 1.517-1.295 2.002.021.226.614.212.587.348 1.006.16.492.245.791.334 1.155.094.39.292 1.277.309 1.732.011.313-.051 1.045-.193 1.518 0 0-.634 1.52-.572 2.092.062.571.1.563.202.949.101.386.4.84.4.84s-.731.347-1.163.415c-.391.06-1.092-.53-1.284-.717-.265-.259-.595-.086-.656.189-.096.433-.344 1.236-.656 1.383-.609.286-1.943.665-2.979.99 0 0-.136-1.019-.635-1.222-.37-.152-1.032-.489-1.416-.654l-1.076-.619Z" fill="#fff"/><path clip-rule="evenodd" d="M392.86 112.488c-.381-.253-.936-.845-1.796-1.502-.486-.372-1.6-1.008-1.994-1.386-.344-.337-.38-.526-.439-.878-.104-.626.357-1.29 1.031-1.44.508-.114 1.033.076 1.51.262.287.112.684.381.918.53.216.136.279.201.516.367.314.221.429.344.241.049-.221-.449-.593-1.219-.984-1.879-.298-.501-.355-.576-.605-.953-.267-.401-.43-.69-.697-1.12-.187-.305-.551-.935-.714-1.303-.223-.502-.527-1.341-.32-1.84.162-.39.732-.677 1.165-.61.567.088 1.074.706 1.292.947.393.434.724.975 1.097 1.705.475.93 1.205 2.198 1.307 2.481-.091-.359-.419-1.069-.467-1.425-.044-.324.097-.762.387-.962.246-.17.555-.303.854-.336.318-.036.701.075.883.238.537.481.938 1.692.931 1.622-.034-.384-.312-1.19-.219-1.594.061-.266.335-.577.505-.668.264-.14.602-.267.914-.305.252-.031.664.146.795.253.313.26.732 1.147.873 1.46.058.129-.051-.396.051-.791.188-.733 1.517-1.295 2.002.021.226.614.212.587.348 1.006.16.492.245.791.334 1.155.094.39.292 1.277.309 1.732.011.313-.051 1.045-.193 1.518 0 0-.634 1.52-.572 2.092.062.571.1.563.202.949.101.386.4.84.4.84s-.731.347-1.163.415c-.391.06-1.092-.53-1.284-.717-.265-.259-.595-.086-.656.189-.096.433-.344 1.236-.656 1.383-.609.286-1.943.665-2.979.99 0 0-.136-1.019-.635-1.222-.37-.152-1.032-.489-1.416-.654l-1.076-.619Z" stroke="#4C4C4F" stroke-width=".75" stroke-linecap="round" stroke-linejoin="round"/><path d="m400.801 110.279-1.07-3.289M398.888 110.914l-1.089-3.298M395.925 108.258l1.08 3.252" stroke="#4C4C4F" stroke-width=".75" stroke-linecap="round"/></g><defs><clipPath id="clip0_2_124"><path fill="#fff" transform="translate(388 99)" d="M0 0h16v17H0z"/></clipPath></defs></svg>