<svg width="153" height="46" fill="none" xmlns="http://www.w3.org/2000/svg"><path d="M0 32.538V.674h5.644v31.864H0ZM20.091 9.422c-7.236 0-12.244 5.517-12.244 11.833 0 7.049 5.448 11.905 12.3 11.905 6.504 0 12.147-4.767 12.147-11.92 0-6.015-4.676-11.818-12.203-11.818Zm-.066 5.4c3.787 0 6.574 2.923 6.574 6.453 0 3.744-3.073 6.475-6.472 6.475-4.016 0-6.544-3.157-6.544-6.465 0-3.625 2.854-6.464 6.442-6.464ZM46.474 9.422c-7.236 0-12.244 5.517-12.244 11.833 0 7.049 5.448 11.905 12.3 11.905 6.504 0 12.147-4.767 12.147-11.92 0-4.212-1.839-6.081-1.839-6.081l1.564-.533v-4.542h-8.016s-1.738-.662-3.912-.662Zm-.066 5.4c3.787 0 6.574 2.923 6.574 6.453 0 3.744-3.073 6.475-6.472 6.475-4.016 0-6.543-3.157-6.543-6.465 0-3.625 2.853-6.464 6.44-6.464ZM52.943 34.095c0 3.744-3.074 6.495-6.473 6.495-4.016 0-6.553-3.187-6.553-6.495H34.19c0 7.05 5.448 11.905 12.3 11.905 6.503 0 12.147-4.752 12.147-11.905h-5.695ZM60.938 32.538V10.084h5.644v22.454h-5.644ZM72.062 32.538V15.113h-3.026v-5.03h3.026V3.188h5.644v6.895h3.108v5.03h-3.108v17.425h-5.644ZM67.485 3.706c0 2.047-1.673 3.707-3.737 3.707s-3.737-1.66-3.737-3.707C60.01 1.66 61.684 0 63.748 0s3.737 1.66 3.737 3.706ZM93.503 9.406c-7.27 0-11.957 5.521-11.957 12.052 0 6.749 4.702 11.717 12.075 11.717 6.877 0 10.26-4.26 10.26-4.26l-3.773-3.746s-2.848 3.047-6.416 3.047c-2.973 0-5.35-1.646-6.18-4.664h17.586V22.01c0-6.15-3.59-12.604-11.595-12.604Zm-.179 4.928c2.6 0 5.26 1.38 5.854 4.675h-11.82c.468-2.316 2.511-4.675 5.966-4.675ZM119.215 33.178c-7.291 0-12.259-5.508-12.259-12.001 0-6.701 5.615-11.775 12.236-11.775 6.4 0 9.676 4.481 9.676 4.481l-3.937 3.887s-2.28-2.922-5.766-2.922c-3.863 0-6.505 2.93-6.505 6.415 0 3.678 2.81 6.5 6.461 6.5 3.542 0 5.805-2.917 5.805-2.917l3.976 3.885s-3.244 4.447-9.687 4.447ZM130.956 32.554V.592h5.644v11.743s2.161-2.933 6.861-2.933c5.91 0 9.334 4.357 9.334 9.93v13.222h-5.644V20.177c0-3.743-2.35-5.297-4.954-5.297-2.966 0-5.597 1.675-5.597 5.587v12.087h-5.644Z" fill="#3D3D3F"/></svg>