<svg width="35" height="35" fill="none" xmlns="http://www.w3.org/2000/svg"><path d="M31.567.69h-4.349c-1.342 0-2.43 1.058-2.43 2.365v4.234c0 1.306 1.088 2.365 2.43 2.365h4.349c1.341 0 2.429-1.059 2.429-2.365V3.055c0-1.307-1.088-2.366-2.43-2.366Z" fill="#FD695A"/><path d="M14.538 9.906h3.819a7.1 7.1 0 0 1 4.263 1.72l.144.155a6.647 6.647 0 0 1 1.766 4.151v3.703a2.4 2.4 0 0 0 .731 1.72 2.533 2.533 0 0 0 1.767.712h4.47c.663 0 1.298-.256 1.766-.713a2.4 2.4 0 0 0 .732-1.72v-4.352a2.4 2.4 0 0 0-.732-1.72 2.533 2.533 0 0 0-1.766-.712h-3.802a7.02 7.02 0 0 1-4.264-1.72l-.16-.14a6.693 6.693 0 0 1-1.765-4.15V3.121a2.4 2.4 0 0 0-.732-1.72A2.533 2.533 0 0 0 19.01.689h-4.47c-.663 0-1.299.257-1.767.713a2.4 2.4 0 0 0-.732 1.72v4.352a2.4 2.4 0 0 0 .732 1.72 2.532 2.532 0 0 0 1.766.712Z" fill="#FD695A"/><path d="M32.214 25.147h-3.782a6.878 6.878 0 0 1-4.224-1.8l-.426-.423a6.789 6.789 0 0 1-1.749-4.197V14.97a2.467 2.467 0 0 0-.73-1.733 2.498 2.498 0 0 0-1.744-.725h-3.783a6.833 6.833 0 0 1-4.224-1.691l-.425-.423a6.788 6.788 0 0 1-1.75-4.196V2.458A2.45 2.45 0 0 0 8.653.72 2.483 2.483 0 0 0 6.903 0H2.474C1.818 0 1.19.259.724.72A2.45 2.45 0 0 0 0 2.458v4.4c0 .652.26 1.278.725 1.739.464.46 1.093.72 1.75.72H6.24a6.88 6.88 0 0 1 4.287 1.753l.425.423a6.835 6.835 0 0 1 1.75 4.197v3.758c.004.65.266 1.273.73 1.733.462.46 1.09.72 1.744.725h3.783c1.549.096 3.02.709 4.176 1.738l.426.423a6.835 6.835 0 0 1 1.75 4.196v3.758c.003.65.265 1.274.728 1.734.463.46 1.09.72 1.745.724h4.445a2.498 2.498 0 0 0 1.745-.724c.463-.46.725-1.083.73-1.734v-4.416a2.466 2.466 0 0 0-.736-1.739 2.498 2.498 0 0 0-1.755-.719ZM7.3 24.825H2.615C1.171 24.825 0 25.885 0 27.191v4.233c0 1.307 1.171 2.366 2.616 2.366H7.3c1.445 0 2.616-1.06 2.616-2.366v-4.233c0-1.307-1.17-2.366-2.616-2.366Z" fill="#FD695A"/><path d="M19.458 24.573h-3.803a7.02 7.02 0 0 1-4.263-1.72l-.16-.139a6.692 6.692 0 0 1-1.766-4.182v-3.718a2.4 2.4 0 0 0-.714-1.673 2.53 2.53 0 0 0-1.704-.728h-4.55c-.663 0-1.298.256-1.766.712A2.4 2.4 0 0 0 0 14.845v4.353a2.4 2.4 0 0 0 .732 1.72 2.532 2.532 0 0 0 1.766.712h3.818a7.1 7.1 0 0 1 4.264 1.72l.143.154a6.647 6.647 0 0 1 1.766 4.152v3.702c0 .32.065.638.192.934.127.296.312.565.546.791.233.226.51.405.815.526.305.122.632.183.961.181h4.455c.662 0 1.298-.256 1.766-.712a2.4 2.4 0 0 0 .732-1.72v-4.353a2.4 2.4 0 0 0-.732-1.72 2.533 2.533 0 0 0-1.766-.712Z" fill="#FD695A"/></svg>