<svg width="48" height="48" viewBox="0 0 48 48" fill="none" xmlns="http://www.w3.org/2000/svg">
<circle cx="24" cy="24" r="24" fill="white"></circle>
<path d="M16.3623 31.9139V15.255C16.3621 15.0917 16.4069 14.9314 16.492 14.7909C16.577 14.6504 16.6992 14.5349 16.8457 14.4565C16.9922 14.3782 17.1576 14.3398 17.3245 14.3455C17.4914 14.3512 17.6536 14.4008 17.7941 14.489L31.1121 22.819C31.2438 22.9011 31.3523 23.0144 31.4275 23.1484C31.5026 23.2823 31.542 23.4327 31.542 23.5855C31.542 23.7383 31.5026 23.8886 31.4275 24.0226C31.3523 24.1565 31.2438 24.2698 31.1121 24.352L17.7941 32.6809C17.6535 32.7692 17.4912 32.8187 17.3242 32.8244C17.1573 32.8301 16.9918 32.7916 16.8453 32.7132C16.6988 32.6347 16.5766 32.519 16.4916 32.3784C16.4066 32.2377 16.3619 32.0773 16.3623 31.9139V31.9139Z" fill="#FD695A"></path>
<path d="M16.7213 31.915V15.225C16.7201 15.2047 16.7201 15.1844 16.7213 15.164C16.7213 15.239 16.7213 15.176 16.7213 15.155C16.7335 15.113 16.7448 15.071 16.7571 15.031C16.7335 15.101 16.7499 15.043 16.7571 15.024C16.7642 15.005 16.801 14.967 16.8184 14.939C16.8358 14.911 16.842 14.909 16.8512 14.897C16.8082 14.953 16.8368 14.913 16.8491 14.897C16.8818 14.869 16.9135 14.838 16.9493 14.808C16.8921 14.857 16.935 14.817 16.9545 14.806L17.0138 14.77L17.0649 14.745C17.1345 14.707 17.0117 14.759 17.0813 14.738C17.1252 14.726 17.1702 14.712 17.2152 14.702C17.2971 14.681 17.1672 14.695 17.2152 14.702C17.2384 14.7032 17.2616 14.7032 17.2848 14.702C17.3039 14.7009 17.323 14.7009 17.3421 14.702C17.3421 14.702 17.4351 14.718 17.3809 14.702L17.4218 14.714C17.4502 14.7213 17.4782 14.73 17.5057 14.74C17.5681 14.759 17.518 14.74 17.5057 14.74L17.5875 14.782C17.5956 14.7866 17.6035 14.7916 17.611 14.797H17.6182L17.7205 14.86L18.2574 15.195L20.352 16.505C21.3372 17.1244 22.321 17.7414 23.3035 18.356C24.346 19.0074 25.3896 19.6597 26.4341 20.313L29.129 21.997C29.6636 22.3304 30.1988 22.6637 30.7347 22.997C30.7879 23.03 30.837 23.063 30.8901 23.097L30.9259 23.118L30.9791 23.153C30.9239 23.111 30.9791 23.153 30.9883 23.165C30.9975 23.177 31.0364 23.214 31.0599 23.238C31.0834 23.262 31.0886 23.29 31.0599 23.238C31.0691 23.254 31.0814 23.268 31.0906 23.285C31.0998 23.302 31.1172 23.334 31.1315 23.36C31.1458 23.386 31.1479 23.419 31.1315 23.353C31.1458 23.398 31.1601 23.44 31.1724 23.487C31.1766 23.5048 31.1797 23.5229 31.1816 23.541C31.1673 23.452 31.1816 23.541 31.1816 23.557C31.1816 23.573 31.1693 23.721 31.1816 23.627C31.1751 23.6724 31.1648 23.7173 31.1509 23.761C31.1459 23.7789 31.1394 23.7963 31.1315 23.813C31.155 23.74 31.1387 23.799 31.1315 23.813C31.121 23.8341 31.109 23.8545 31.0957 23.874C31.0886 23.883 31.0333 23.958 31.0834 23.895C31.0512 23.9317 31.0171 23.9668 30.9812 24C30.972 24.009 30.928 24.042 30.9812 24C30.9617 24.014 30.9505 24.021 30.928 24.035C30.9183 24.0422 30.9081 24.0486 30.8973 24.054L29.67 24.818L27.1991 26.37C26.1662 27.0147 25.1339 27.66 24.1023 28.306L21.0576 30.211C20.264 30.7077 19.4707 31.2037 18.6778 31.699C18.3229 31.922 17.971 32.147 17.6131 32.365C17.5742 32.388 17.5364 32.41 17.4955 32.431C17.5558 32.401 17.5118 32.424 17.4955 32.431L17.4239 32.452C17.4004 32.459 17.3758 32.4611 17.3523 32.4681C17.4167 32.4491 17.3881 32.4681 17.3615 32.4681C17.3145 32.4704 17.2674 32.4704 17.2204 32.4681C17.1529 32.4681 17.2204 32.4681 17.2326 32.4681C17.206 32.4681 17.1774 32.459 17.1508 32.452C17.1242 32.445 17.023 32.407 17.0649 32.424C17.1068 32.441 17.0025 32.391 16.9831 32.379C16.9637 32.367 16.9442 32.351 16.9207 32.342C16.8747 32.321 16.9759 32.396 16.9207 32.342C16.887 32.309 16.8532 32.2791 16.8184 32.2421C16.8685 32.2961 16.8092 32.226 16.7918 32.202C16.7745 32.178 16.7652 32.153 16.7509 32.129C16.7366 32.105 16.7366 32.073 16.7509 32.136C16.7458 32.086 16.7284 32.042 16.7162 31.997C16.7162 31.978 16.7162 31.934 16.7162 31.997C16.7199 31.9692 16.7199 31.9409 16.7162 31.913C16.7151 31.82 16.6768 31.7311 16.6095 31.6653C16.5423 31.5995 16.4513 31.5621 16.3562 31.561C16.2616 31.5639 16.1718 31.6023 16.1055 31.6682C16.0392 31.7342 16.0015 31.8226 16.0002 31.915C16.0004 32.1402 16.0623 32.3613 16.1793 32.5552C16.2963 32.7492 16.4643 32.909 16.6658 33.0181C16.8673 33.1271 17.095 33.1815 17.3252 33.1755C17.5554 33.1695 17.7798 33.1034 17.9751 32.984C18.0641 32.93 18.1521 32.874 18.239 32.818L19.9889 31.725L22.8004 29.967C23.862 29.3004 24.9246 28.6354 25.9882 27.972L28.8938 26.156C29.5456 25.748 30.1984 25.3394 30.8523 24.93L31.2614 24.675C31.3936 24.5947 31.5111 24.4933 31.6091 24.375C31.7622 24.1875 31.8582 23.9617 31.8863 23.7233C31.9143 23.4849 31.8732 23.2436 31.7676 23.027C31.6259 22.7738 31.413 22.5656 31.154 22.427L30.5741 22.067L28.3834 20.697L25.3603 18.804C24.3021 18.1434 23.2435 17.4817 22.1847 16.819L19.5307 15.16L18.0805 14.252C17.9249 14.1441 17.7484 14.0684 17.5617 14.0297C17.3751 13.991 17.1824 13.9901 16.9954 14.027C16.7069 14.0972 16.4513 14.2611 16.2706 14.4918C16.0898 14.7225 15.9945 15.0064 16.0002 15.297V31.92C16.0013 32.0131 16.0396 32.102 16.1069 32.1678C16.1741 32.2336 16.2651 32.271 16.3602 32.272C16.4555 32.2685 16.5459 32.2297 16.613 32.1634C16.68 32.097 16.7187 32.0083 16.7213 31.915V31.915Z" fill="#FD695A"></path>
</svg>
