<svg width="48" height="48" fill="none" xmlns="http://www.w3.org/2000/svg"><circle cx="24" cy="24" r="24" fill="#fff"/><path d="M16.362 31.914V15.255c0-.163.045-.324.13-.464a.92.92 0 0 1 .354-.335.948.948 0 0 1 .948.033l13.318 8.33c.132.082.24.195.316.33a.893.893 0 0 1-.316 1.203l-13.318 8.329a.944.944 0 0 1-1.302-.303.894.894 0 0 1-.13-.464Z" fill="#FD695A"/><path d="M16.721 31.915v-16.69a.517.517 0 0 1 0-.061v-.009l.036-.124c-.024.07-.007.012 0-.007s.044-.057.061-.085c.018-.028.024-.03.033-.042-.043.056-.014.016-.002 0 .033-.028.064-.059.1-.089-.057.049-.014.009.005-.002l.06-.036.05-.025c.07-.038-.052.014.017-.007.044-.012.09-.026.134-.036.082-.021-.048-.007 0 0a.673.673 0 0 0 .07 0 .498.498 0 0 1 .057 0s.093.016.039 0l.04.012a.904.904 0 0 1 .085.026c.062.019.012 0 0 0l.081.042a.26.26 0 0 1 .024.015h.007l.103.063.536.335 2.095 1.31c.985.62 1.969 1.236 2.951 1.851l3.131 1.957 2.695 1.684 1.606 1c.053.033.102.066.155.1l.036.021.053.035c-.055-.042 0 0 .01.012.008.012.047.049.07.073.024.024.03.052 0 0 .01.016.022.03.032.047l.04.075c.015.026.017.059 0-.007.015.045.03.087.041.134a.432.432 0 0 1 .01.054c-.015-.089 0 0 0 .016s-.013.164 0 .07a.831.831 0 0 1-.05.186c.023-.073.007-.014 0 0a.518.518 0 0 1-.049.082 1.406 1.406 0 0 1-.102.105c-.009.009-.053.042 0 0a.82.82 0 0 1-.084.054l-1.227.764-2.47 1.552-3.098 1.936-3.044 1.905-2.38 1.488c-.355.223-.707.448-1.065.666a2.227 2.227 0 0 1-.117.066c.06-.03.016-.007 0 0l-.072.021c-.024.007-.048.01-.072.016.065-.019.036 0 .01 0a1.444 1.444 0 0 1-.142 0h.013c-.027 0-.056-.009-.082-.016-.027-.007-.128-.045-.086-.028.042.017-.063-.033-.082-.045-.02-.012-.039-.028-.062-.037-.046-.021.055.054 0 0-.034-.033-.068-.063-.103-.1.05.054-.009-.016-.026-.04-.018-.024-.027-.049-.041-.073-.014-.024-.014-.056 0 .007-.005-.05-.023-.094-.035-.139 0-.019 0-.063 0 0a.32.32 0 0 0 0-.084.352.352 0 0 0-.107-.248.368.368 0 0 0-.253-.104.372.372 0 0 0-.25.107.355.355 0 0 0-.106.247c0 .225.062.446.18.64.116.194.284.354.486.463a1.315 1.315 0 0 0 1.31-.034c.088-.054.176-.11.263-.166l1.75-1.093 2.811-1.758c1.062-.667 2.125-1.332 3.188-1.995l2.906-1.816 1.958-1.226.41-.255c.132-.08.25-.182.347-.3a1.254 1.254 0 0 0 .159-1.348 1.528 1.528 0 0 0-.614-.6l-.58-.36-2.19-1.37-3.024-1.893c-1.058-.66-2.116-1.322-3.175-1.985L19.53 15.16l-1.45-.908a1.414 1.414 0 0 0-1.086-.225c-.288.07-.544.234-.724.465-.181.23-.277.514-.27.805V31.92c0 .093.039.182.106.248a.368.368 0 0 0 .253.104.38.38 0 0 0 .253-.109.364.364 0 0 0 .108-.248Z" fill="#FD695A"/></svg>