<svg width="158" height="40" fill="none" xmlns="http://www.w3.org/2000/svg"><path d="m50.574 31.338 1.966-4.535c2.124 1.574 4.947 2.393 7.737 2.393 2.06 0 3.36-.787 3.36-1.984-.031-3.338-12.334-.724-12.429-9.102-.031-4.252 3.773-7.528 9.164-7.528 3.202 0 6.405.787 8.688 2.583l-1.84 4.63c-2.092-1.323-4.692-2.268-7.165-2.268-1.68 0-2.79.787-2.79 1.795.031 3.276 12.429 1.48 12.556 9.48 0 4.347-3.71 7.402-9.037 7.402-3.9 0-7.483-.913-10.21-2.866Zm75.433-6.173a5.712 5.712 0 0 1-4.946 2.866c-3.139 0-5.676-2.52-5.676-5.638s2.537-5.638 5.676-5.638a5.712 5.712 0 0 1 4.946 2.867l5.422-2.993c-2.029-3.59-5.929-6.047-10.368-6.047-6.564 0-11.891 5.291-11.891 11.811s5.327 11.811 11.891 11.811a11.83 11.83 0 0 0 10.368-6.047l-5.422-2.992ZM72.547.787h6.786v32.976h-6.785V.787Zm61.546 0v32.976h6.785v-9.89l8.054 9.89h8.688l-10.242-11.748 9.481-10.96h-8.307l-7.674 9.102V.787h-6.785Zm-34.594 24.44c-.983 1.607-3.012 2.804-5.295 2.804-3.139 0-5.676-2.52-5.676-5.638s2.537-5.638 5.676-5.638c2.283 0 4.312 1.26 5.295 2.898v5.575Zm0-14.172v2.677c-1.11-1.858-3.868-3.15-6.753-3.15-5.962 0-10.654 5.228-10.654 11.78 0 6.551 4.692 11.842 10.654 11.842 2.885 0 5.644-1.291 6.753-3.15v2.678h6.786V11.055h-6.786Z" fill="#3D3D3F"/><path d="M8.625 25.196c0 2.3-1.871 4.157-4.186 4.157S.254 27.495.254 25.197c0-2.3 1.87-4.157 4.185-4.157h4.186v4.157Zm2.092 0c0-2.3 1.871-4.157 4.186-4.157 2.314 0 4.185 1.858 4.185 4.157V35.59c0 2.3-1.87 4.157-4.185 4.157-2.315 0-4.186-1.858-4.186-4.157V25.196Z" fill="#E01E5A"/><path d="M14.903 8.503c-2.315 0-4.186-1.858-4.186-4.157 0-2.3 1.871-4.158 4.186-4.158 2.314 0 4.185 1.859 4.185 4.158v4.157h-4.185Zm0 2.11c2.314 0 4.185 1.859 4.185 4.158 0 2.3-1.87 4.158-4.185 4.158H4.407c-2.314 0-4.185-1.859-4.185-4.158 0-2.299 1.87-4.157 4.185-4.157h10.496Z" fill="#36C5F0"/><path d="M31.676 14.771c0-2.299 1.871-4.157 4.186-4.157 2.314 0 4.185 1.858 4.185 4.157 0 2.3-1.87 4.158-4.185 4.158h-4.186V14.77Zm-2.093 0c0 2.3-1.87 4.158-4.185 4.158-2.315 0-4.185-1.859-4.185-4.158V4.346c0-2.3 1.87-4.158 4.185-4.158 2.315 0 4.185 1.859 4.185 4.158v10.425Z" fill="#2EB67D"/><path d="M25.398 31.432c2.315 0 4.185 1.859 4.185 4.158 0 2.3-1.87 4.157-4.185 4.157-2.315 0-4.185-1.858-4.185-4.157v-4.158h4.185Zm0-2.078c-2.315 0-4.185-1.859-4.185-4.158 0-2.3 1.87-4.157 4.185-4.157h10.495c2.315 0 4.186 1.858 4.186 4.157 0 2.3-1.871 4.157-4.186 4.157H25.398Z" fill="#ECB22E"/></svg>