<svg width="155" height="46" fill="none" xmlns="http://www.w3.org/2000/svg"><path d="M23.25.076C10.449.076.07 10.342.07 23.006c0 12.663 10.379 22.928 23.18 22.928 12.802 0 23.179-10.265 23.179-22.929 0-12.662-10.377-22.928-23.18-22.928V.076Zm10.63 33.07a1.453 1.453 0 0 1-1.988.474c-5.442-3.288-12.293-4.033-20.361-2.21a1.446 1.446 0 0 1-1.73-1.076 1.427 1.427 0 0 1 1.087-1.71c8.83-1.996 16.403-1.137 22.512 2.557a1.42 1.42 0 0 1 .48 1.966Zm2.837-6.243a1.819 1.819 0 0 1-2.486.59c-6.23-3.79-15.728-4.886-23.097-2.673a1.813 1.813 0 0 1-2.256-1.191 1.787 1.787 0 0 1 1.206-2.23c8.417-2.527 18.882-1.303 26.037 3.047a1.776 1.776 0 0 1 .596 2.457Zm.243-6.501c-7.47-4.39-19.796-4.793-26.928-2.652-1.146.344-2.357-.296-2.704-1.429a2.142 2.142 0 0 1 1.445-2.675c8.188-2.459 21.799-1.984 30.4 3.067a2.13 2.13 0 0 1 .758 2.939 2.18 2.18 0 0 1-2.97.75h-.001Zm26.173.84c-4.003-.943-4.714-1.606-4.714-2.998 0-1.316 1.251-2.2 3.114-2.2 1.805 0 3.593.671 5.47 2.055a.26.26 0 0 0 .196.048.259.259 0 0 0 .174-.106l1.954-2.725a.258.258 0 0 0-.05-.352c-2.233-1.773-4.746-2.634-7.686-2.634-4.32 0-7.34 2.565-7.34 6.235 0 3.936 2.605 5.33 7.105 6.406 3.828.872 4.476 1.604 4.476 2.91 0 1.449-1.307 2.35-3.41 2.35-2.337 0-4.243-.78-6.375-2.605a.274.274 0 0 0-.19-.063.26.26 0 0 0-.18.09l-2.193 2.58a.259.259 0 0 0 .025.362c2.48 2.19 5.53 3.346 8.824 3.346 4.656 0 7.664-2.517 7.664-6.413.008-3.288-1.981-5.108-6.856-6.281l-.008-.004Zm17.399-3.904c-2.018 0-3.673.787-5.04 2.398v-1.814a.26.26 0 0 0-.26-.26h-3.585a.26.26 0 0 0-.26.26v20.153c0 .142.116.26.26.26h3.584a.26.26 0 0 0 .26-.26v-6.36c1.368 1.514 3.023 2.256 5.04 2.256 3.751 0 7.549-2.856 7.549-8.316.005-5.46-3.792-8.317-7.546-8.317h-.002Zm3.38 8.317c0 2.78-1.73 4.72-4.21 4.72-2.45 0-4.3-2.028-4.3-4.72 0-2.691 1.85-4.72 4.3-4.72 2.438 0 4.21 1.985 4.21 4.72Zm13.896-8.317c-4.83 0-8.613 3.68-8.613 8.377 0 4.647 3.759 8.286 8.555 8.286 4.847 0 8.642-3.666 8.642-8.346 0-4.663-3.77-8.316-8.584-8.316Zm0 13.065c-2.568 0-4.506-2.043-4.506-4.749 0-2.719 1.872-4.692 4.448-4.692 2.586 0 4.534 2.042 4.534 4.751 0 2.718-1.882 4.69-4.476 4.69Zm18.897-12.74h-3.945v-3.989a.26.26 0 0 0-.26-.26h-3.584a.262.262 0 0 0-.263.26v3.989h-1.722a.26.26 0 0 0-.26.26v3.046c0 .143.116.26.26.26h1.722v7.884c0 3.185 1.603 4.8 4.766 4.8 1.284 0 2.35-.263 3.355-.827a.253.253 0 0 0 .133-.224v-2.903a.257.257 0 0 0-.125-.219.255.255 0 0 0-.254-.01 4.57 4.57 0 0 1-2.104.5c-1.149 0-1.664-.517-1.664-1.672V21.23h3.945a.26.26 0 0 0 .26-.26v-3.046a.253.253 0 0 0-.258-.26l-.002-.001Zm13.739.015v-.49c0-1.44.56-2.083 1.811-2.083.747 0 1.347.146 2.02.368a.26.26 0 0 0 .343-.247V12.24a.257.257 0 0 0-.185-.249c-.709-.209-1.617-.423-2.978-.423-3.308 0-5.06 1.844-5.06 5.33v.75h-1.722a.262.262 0 0 0-.263.26v3.062c0 .143.119.26.263.26h1.722v12.158c0 .146.119.26.263.26h3.582a.26.26 0 0 0 .262-.26V21.23h3.347l5.126 12.157c-.581 1.277-1.154 1.531-1.935 1.531-.631 0-1.298-.186-1.976-.556a.289.289 0 0 0-.208-.019.26.26 0 0 0-.155.14l-1.215 2.637a.257.257 0 0 0 .114.336c1.267.68 2.41.97 3.825.97 2.646 0 4.11-1.222 5.397-4.502l6.217-15.89a.251.251 0 0 0-.028-.242.256.256 0 0 0-.213-.113h-3.731a.262.262 0 0 0-.249.174l-3.823 10.798-4.185-10.805a.26.26 0 0 0-.243-.167h-6.123Zm-7.965-.015h-3.585a.262.262 0 0 0-.263.26v15.464c0 .146.119.26.263.26h3.585a.261.261 0 0 0 .262-.26V17.924a.26.26 0 0 0-.262-.26v-.001Zm-1.772-7.043c-1.42 0-2.571 1.137-2.571 2.542 0 1.405 1.151 2.543 2.571 2.543 1.42 0 2.569-1.138 2.569-2.543 0-1.404-1.152-2.542-2.569-2.542ZM152.1 22.636a2.5 2.5 0 0 1-2.522-2.495 2.522 2.522 0 0 1 2.536-2.508 2.498 2.498 0 0 1 2.521 2.494 2.523 2.523 0 0 1-2.535 2.51Zm.014-4.755a2.243 2.243 0 0 0-2.27 2.26c0 1.244.972 2.246 2.256 2.246a2.242 2.242 0 0 0 2.27-2.26 2.225 2.225 0 0 0-2.256-2.245Zm.559 2.503.714.988h-.603l-.642-.907h-.551v.907h-.504v-2.62h1.179c.617 0 1.021.312 1.021.836.003.43-.249.692-.611.796h-.003Zm-.426-1.182h-.656v.828h.656c.326 0 .523-.158.523-.414 0-.27-.197-.414-.523-.414Z" fill="#1ED760"/></svg>